<svg version="1.1" id="Layer_1" xmlns="http://www.w3.org/2000/svg" xmlns:xlink="http://www.w3.org/1999/xlink" x="0px" y="0px"
	 width="100%" viewBox="0 0 668 667" enable-background="new 0 0 668 667" xml:space="preserve">
<path fill="#FFFFFF" opacity="1.000000" stroke="none" 
	d="
M669.000000,158.000000 
	C669.000000,328.333313 669.000000,498.166626 669.000000,668.000000 
	C446.333374,668.000000 223.666763,668.000000 1.000105,668.000000 
	C1.000070,445.666748 1.000070,223.333481 1.000035,1.000165 
	C223.666565,1.000110 446.333130,1.000110 668.999878,1.000055 
	C669.000000,53.166668 669.000000,105.333336 669.000000,158.000000 
M21.992598,378.500000 
	C21.992598,468.245758 21.992598,557.991516 21.992598,647.603943 
	C232.083023,647.603943 441.453888,647.603943 650.736694,647.603943 
	C650.736694,437.946228 650.736694,228.693192 650.736694,19.307541 
	C441.093567,19.307541 231.722702,19.307541 21.992483,19.307541 
	C21.992483,138.915329 21.992483,258.207672 21.992598,378.500000 
z"/>
<path fill="#6659E5" opacity="1.000000" stroke="none" 
	d="
M21.992540,378.000000 
	C21.992483,258.207672 21.992483,138.915329 21.992483,19.307541 
	C231.722702,19.307541 441.093567,19.307541 650.736694,19.307541 
	C650.736694,228.693192 650.736694,437.946228 650.736694,647.603943 
	C441.453888,647.603943 232.083023,647.603943 21.992598,647.603943 
	C21.992598,557.991516 21.992598,468.245758 21.992540,378.000000 
M636.844849,156.500000 
	C636.844849,115.720421 636.844849,74.940849 636.844849,33.982208 
	C436.573059,33.982208 236.887100,33.982208 36.978767,33.982208 
	C36.978767,234.004013 36.978767,433.680847 36.978767,633.565125 
	C237.014999,633.565125 436.714264,633.565125 636.844421,633.565125 
	C636.844421,474.690277 636.844421,316.095154 636.844849,156.500000 
z"/>
<path fill="#FEFEFF" opacity="1.000000" stroke="none" 
	d="
M636.844604,157.000000 
	C636.844421,316.095154 636.844421,474.690277 636.844421,633.565125 
	C436.714264,633.565125 237.014999,633.565125 36.978767,633.565125 
	C36.978767,433.680847 36.978767,234.004013 36.978767,33.982208 
	C236.887100,33.982208 436.573059,33.982208 636.844849,33.982208 
	C636.844849,74.940849 636.844849,115.720421 636.844604,157.000000 
M415.904175,465.934906 
	C415.624847,465.162964 415.342316,464.392151 415.066956,463.618805 
	C414.468781,461.938904 413.874268,460.257690 413.278290,458.577026 
	C412.520813,460.462677 411.748596,462.342682 411.021790,464.240112 
	C410.912048,464.526550 411.014160,464.894104 410.574249,465.745117 
	C408.560547,472.961975 406.546875,480.178833 404.533173,487.395691 
	C405.081085,487.620453 405.628998,487.845215 406.176880,488.069946 
	C408.234131,484.785889 406.722656,479.225647 413.663025,479.160980 
	C420.816772,479.094330 417.564728,486.287872 422.872650,488.651031 
	C420.351746,480.544464 418.183319,473.571289 415.904175,465.934906 
M393.018036,288.251831 
	C393.473816,286.612732 394.316406,284.975830 394.325775,283.334198 
	C394.422791,266.336517 393.937073,249.320923 394.584991,232.347412 
	C394.884094,224.512024 393.044006,219.280197 385.361847,216.734085 
	C384.148285,216.331848 383.131927,215.334564 382.059662,214.635422 
	C385.804169,210.559677 389.662018,210.351501 393.844299,213.816605 
	C395.109314,214.864716 396.995758,215.256699 398.053711,216.436768 
	C399.327240,217.857315 400.828705,219.791016 400.843109,221.514175 
	C401.028351,243.677017 401.029083,265.842468 400.840637,288.005219 
	C400.826141,289.708893 399.463318,292.121307 398.005432,292.982910 
	C380.373535,303.403473 362.609619,313.600922 344.868713,323.836731 
	C342.451691,325.231232 339.851685,326.347473 337.588898,327.949219 
	C336.799103,328.508331 336.770630,330.142883 336.394470,331.286285 
	C337.542908,331.298584 338.934601,331.740845 339.799316,331.251678 
	C344.514832,328.583801 349.057312,325.612366 353.738953,322.881866 
	C369.559631,313.654968 385.442963,304.534760 401.205566,295.210205 
	C402.622253,294.372131 404.238922,292.362152 404.250610,290.884491 
	C404.440277,266.888458 404.412292,242.890457 404.358215,218.893051 
	C404.349640,215.094971 390.002228,206.169373 386.534485,207.659134 
	C386.229858,207.790024 385.946716,207.972137 385.657257,208.136902 
	C364.698669,220.065964 343.733093,231.982758 322.804108,243.963531 
	C321.756958,244.562958 320.306152,245.688522 320.268829,246.618286 
	C320.048615,252.105118 319.156036,257.905273 320.621521,262.984955 
	C321.430481,265.789001 326.403809,267.387634 329.492188,269.540649 
	C330.374329,270.155609 331.229706,270.808960 332.070068,271.424683 
	C328.529755,275.351532 324.973724,275.664337 321.071411,272.421600 
	C319.936707,271.478668 318.556671,270.752014 317.180298,270.195068 
	C314.085175,268.942688 313.193359,266.747559 313.319489,263.502228 
	C313.552277,257.511902 313.109955,251.486267 313.538086,245.517624 
	C313.684357,243.478653 315.121216,240.863052 316.794159,239.728683 
	C321.740417,236.374725 327.082184,233.599121 332.299591,230.650955 
	C346.638824,222.548447 361.004883,214.493286 375.327698,206.361908 
	C377.103363,205.353836 380.131042,204.489471 376.913239,201.437714 
	C355.297058,213.693192 333.723114,225.873077 312.253448,238.234085 
	C311.051086,238.926346 310.144165,241.084427 310.068420,242.608414 
	C309.804047,247.928070 310.546204,253.348007 309.833221,258.583771 
	C308.667480,267.144318 311.253601,272.982697 319.660004,275.848938 
	C320.496155,276.134033 321.175415,276.879272 322.011597,277.470398 
	C316.298767,281.291687 316.299957,281.289612 310.905060,278.227661 
	C309.747162,277.570496 308.628754,276.806854 307.403259,276.312805 
	C304.155334,275.003448 303.221680,272.709717 303.305786,269.252686 
	C303.536774,259.759308 303.585571,250.250336 303.288086,240.760635 
	C303.167572,236.916534 304.363861,234.766327 307.743256,232.898544 
	C324.195740,223.805328 340.513367,214.467819 356.863708,205.190353 
	C360.828094,202.940903 364.735596,200.591202 368.669250,198.287582 
	C368.448486,197.635193 368.227722,196.982803 368.006958,196.330414 
	C366.524292,196.678268 364.860138,196.704086 363.586090,197.422104 
	C343.294434,208.857925 323.016968,220.320724 302.868439,232.005295 
	C301.283478,232.924438 299.828400,235.496460 299.758331,237.354828 
	C299.432007,246.008270 300.213745,254.734207 299.449371,263.332001 
	C298.653076,272.288696 300.584076,278.854431 309.867828,281.735046 
	C310.592682,281.959930 311.179291,282.630585 311.858765,283.114441 
	C308.236542,287.003357 304.635376,287.571075 300.589935,284.137665 
	C299.214386,282.970215 297.188171,282.505890 295.972504,281.230896 
	C294.676666,279.871796 293.187012,277.945892 293.160797,276.246155 
	C292.939941,261.917725 292.938019,247.582870 293.163666,233.254562 
	C293.190643,231.540771 294.555603,229.202271 296.014160,228.270065 
	C301.898743,224.509018 308.043701,221.151398 314.128174,217.707886 
	C327.732880,210.008301 341.372864,202.370911 354.959503,194.639709 
	C356.739410,193.626892 359.904449,192.702927 356.065613,189.474716 
	C334.665588,201.785141 313.156525,214.092239 291.778503,226.622864 
	C290.517609,227.361923 289.723907,229.894791 289.706573,231.602982 
	C289.549377,247.099792 289.509155,262.600464 289.751099,278.095093 
	C289.779846,279.936462 291.312469,282.230011 292.835907,283.466156 
	C295.421021,285.563721 298.554169,286.985931 301.463348,288.695740 
	C297.973572,292.769775 294.717468,293.054504 291.027374,290.297913 
	C289.442566,289.113983 287.269775,288.628815 285.887787,287.286926 
	C284.543488,285.981628 283.045380,283.995880 283.026520,282.293274 
	C282.823547,263.964081 282.808929,245.630630 283.042053,227.302155 
	C283.065186,225.482986 284.643372,223.046509 286.228363,222.001587 
	C291.360779,218.617920 296.817993,215.723328 302.176727,212.687347 
	C316.356628,204.653702 330.570801,196.680115 344.704742,188.566681 
	C345.996887,187.824951 346.811279,186.250977 347.847504,185.063477 
	C347.434967,184.712738 347.022400,184.362015 346.609863,184.011292 
	C344.231384,185.093124 341.747162,185.990692 339.491089,187.285721 
	C320.575714,198.143372 301.731293,209.124924 282.783356,219.925064 
	C280.085358,221.462875 279.222534,223.281265 279.241791,226.294815 
	C279.363220,245.292084 279.373718,264.291016 279.231171,283.287994 
	C279.208496,286.311951 279.924103,288.235687 282.740448,289.588959 
	C285.677368,291.000153 288.395355,292.866943 291.403778,294.649963 
	C288.041168,298.345154 284.949280,299.781952 281.033661,296.301331 
	C279.814148,295.217285 278.255463,294.438385 276.738770,293.781372 
	C273.796326,292.506775 272.777649,290.579742 272.806000,287.228180 
	C272.989136,265.565308 272.951263,243.899841 272.839966,222.235977 
	C272.824585,219.237579 273.622131,217.452499 276.382324,215.921982 
	C287.300232,209.868057 298.060425,203.529358 308.870087,197.280624 
	C318.329712,191.812286 327.777252,186.323029 337.230103,180.843018 
	C337.049133,180.198364 336.868134,179.553696 336.687134,178.909042 
	C335.130890,179.174713 333.341736,179.032150 332.053192,179.767166 
	C312.096405,191.151154 292.161102,202.575348 272.376617,214.254166 
	C270.714142,215.235535 269.263428,218.093765 269.239807,220.098022 
	C269.007935,239.759918 269.100128,259.425629 269.099762,279.090271 
	C269.099457,294.048340 269.099121,294.048309 282.406494,301.047058 
	C282.553741,301.124481 282.700897,301.271393 282.847382,301.270477 
	C284.648529,301.259369 286.812988,301.876160 288.196136,301.102264 
	C309.099609,289.406097 329.915070,277.552063 350.689362,265.627411 
	C351.950043,264.903778 353.343689,263.391022 353.576294,262.054169 
	C356.020782,248.004303 354.183319,244.614334 341.392090,238.612366 
	C341.196075,238.520401 341.169647,238.067017 341.168304,238.063431 
	C345.441284,233.312546 349.731110,234.451019 354.034180,237.897217 
	C354.806854,238.516022 355.683533,239.077209 356.602692,239.427521 
	C359.551941,240.551498 360.285004,242.636398 360.169281,245.676895 
	C359.934875,251.833984 359.947815,258.011688 360.166809,264.169922 
	C360.270508,267.086060 359.223358,268.646759 356.695740,270.026062 
	C345.454742,276.160156 334.301849,282.457611 323.167847,288.785278 
	C313.671448,294.182220 304.244171,299.700836 294.786285,305.165619 
	C294.943329,305.792755 295.100372,306.419891 295.257416,307.047058 
	C296.702118,306.879639 298.386261,307.138489 299.555908,306.481415 
	C320.011261,294.990814 340.440002,283.450867 360.738434,271.686737 
	C362.309814,270.776031 363.616821,268.174835 363.757629,266.264343 
	C364.160736,260.794586 363.417206,255.222595 364.017487,249.789444 
	C364.843872,242.309341 362.978058,236.935730 355.332214,234.443848 
	C354.056122,234.027954 353.005524,232.920334 351.791016,232.091599 
	C355.439301,228.422943 358.883850,228.198639 362.661743,231.070267 
	C364.238922,232.269119 366.319550,232.853470 367.761810,234.166885 
	C368.927124,235.228073 370.165192,236.950974 370.192200,238.402283 
	C370.393707,249.230743 370.371674,260.065674 370.215881,270.895660 
	C370.195587,272.304626 369.397949,274.344940 368.306671,274.994385 
	C359.591858,280.180847 350.717133,285.098419 341.895813,290.106140 
	C329.616211,297.077087 317.340424,304.054779 305.063019,311.029602 
	C305.187897,311.639862 305.312805,312.250122 305.437683,312.860382 
	C306.756653,312.767914 308.319427,313.106720 309.358551,312.519257 
	C329.921417,300.893646 350.459900,289.222931 370.865479,277.324921 
	C372.406097,276.426605 373.695190,273.784668 373.765625,271.903290 
	C374.077026,263.582458 373.301239,255.188461 374.059235,246.925552 
	C374.903381,237.724503 373.116882,230.725693 363.506592,227.562073 
	C362.952881,227.379807 362.521423,226.826111 361.991974,226.413223 
	C365.157410,222.633850 368.490540,221.916000 372.398132,224.982422 
	C373.564697,225.897858 374.900330,226.699326 376.284210,227.216782 
	C380.041168,228.621582 380.759735,231.299973 380.696564,235.063873 
	C380.475586,248.225449 380.455170,261.396118 380.711853,274.556458 
	C380.787262,278.421021 379.564636,280.491455 376.184143,282.372620 
	C356.849640,293.131866 337.660492,304.152252 318.418335,315.077576 
	C316.565643,316.129456 314.068024,316.927307 316.905182,319.634491 
	C317.394928,319.467224 317.893097,319.378723 318.308197,319.143585 
	C339.301331,307.249451 360.318176,295.396179 381.206757,283.320953 
	C382.642731,282.490845 383.878082,280.006775 383.911346,278.267120 
	C384.143799,266.106140 383.323914,253.883896 384.255280,241.790176 
	C385.031219,231.714218 383.033844,224.340179 372.736450,220.917664 
	C372.548126,220.855072 372.478455,220.435471 372.179108,219.829742 
	C375.073853,218.578720 377.347229,215.511215 381.115967,218.266998 
	C383.252472,219.829254 385.935211,220.685379 387.939117,222.373367 
	C389.235504,223.465393 390.485748,225.479538 390.501129,227.092438 
	C390.677673,245.588852 390.680481,264.088226 390.492767,282.584412 
	C390.476746,284.165161 389.136169,286.277557 387.772888,287.197510 
	C383.642303,289.984894 379.224548,292.354584 374.871063,294.802368 
	C359.351837,303.528168 343.815735,312.224030 328.277893,320.916626 
	C326.287445,322.030182 324.123138,323.027130 327.610382,325.731537 
	C349.104187,313.437927 370.744995,301.060272 393.018036,288.251831 
M295.928467,380.662018 
	C295.928467,385.480774 295.928467,390.299500 295.928467,395.118256 
	C293.414795,389.158356 291.501831,383.170959 290.229370,377.050446 
	C289.306183,372.609833 287.585419,370.503815 282.947693,372.306793 
	C282.947693,387.522766 282.947693,402.690308 282.947693,417.602966 
	C285.173370,417.602966 287.055084,417.602966 289.160706,417.602966 
	C289.160706,410.025024 289.160706,402.862366 289.160706,395.699738 
	C291.434357,401.457977 293.264496,407.279541 294.478760,413.226837 
	C295.390717,417.693726 297.454620,419.091492 301.721680,417.529327 
	C301.721680,402.395081 301.721680,387.323212 301.721680,372.106201 
	C299.593994,372.106201 297.679810,372.106201 295.928558,372.106201 
	C295.928558,374.828125 295.928558,377.272552 295.928467,380.662018 
M470.933350,402.483887 
	C470.931885,394.181274 470.898590,385.878510 470.944763,377.576172 
	C470.962952,374.304169 469.723419,371.931641 466.290253,371.729187 
	C462.015350,371.477112 457.714294,371.668701 453.360168,371.668701 
	C453.360168,387.298553 453.360168,402.478577 453.360168,418.018036 
	C457.747253,418.018036 461.968750,418.544281 465.946960,417.788971 
	C467.845062,417.428589 470.164124,414.878143 470.717316,412.882965 
	C471.529846,409.952576 470.930878,406.630859 470.933350,402.483887 
M208.616791,397.182251 
	C209.383972,395.953949 210.762451,394.750610 210.813766,393.493103 
	C211.050766,387.684845 211.202713,381.838013 210.724564,376.059662 
	C210.600525,374.560760 208.218491,372.257599 206.653137,372.058685 
	C202.306702,371.506348 197.844254,371.867065 193.417557,371.867065 
	C193.417557,387.581757 193.417557,402.631378 193.417557,417.630737 
	C195.678818,417.630737 197.707809,417.630737 199.443390,417.630737 
	C199.554596,410.813812 198.309402,404.292847 200.031052,397.999573 
	C200.708557,397.977692 201.386078,397.955811 202.063583,397.933929 
	C203.024216,404.524994 203.984848,411.116089 204.953110,417.759430 
	C206.823624,417.759430 208.763489,417.759430 210.840027,417.759430 
	C209.946274,410.966400 209.086868,404.434418 208.616791,397.182251 
M517.913635,405.430756 
	C517.913635,394.346985 517.913635,383.263214 517.913635,372.170410 
	C515.694336,372.170410 513.954956,372.170410 511.829712,372.170410 
	C511.829712,385.548676 511.829712,398.613586 511.829712,411.809875 
	C509.865448,411.809875 508.298248,411.809875 506.454712,411.809875 
	C506.454712,398.458984 506.454712,385.411224 506.454712,372.220215 
	C504.388824,372.220215 502.366882,372.220215 500.404724,372.220215 
	C500.404724,385.551971 500.241547,398.513214 500.564484,411.462341 
	C500.618622,413.633575 502.299347,417.023376 504.046051,417.682098 
	C513.130920,421.108124 517.909058,417.505493 517.912170,407.900421 
	C517.912292,407.401306 517.912781,406.902161 517.913635,405.430756 
M270.220886,377.820740 
	C270.435577,373.640717 268.519745,371.625092 264.270630,371.826019 
	C262.108795,371.928223 259.680237,371.239899 257.843231,372.019165 
	C255.940399,372.826385 253.286865,374.934692 253.235413,376.546478 
	C252.847488,388.700104 252.824097,400.878326 253.240768,413.029877 
	C253.299484,414.742035 256.112610,416.859283 258.115387,417.847504 
	C259.723938,418.641296 262.042480,417.906189 264.034576,418.030884 
	C268.562164,418.314331 270.299530,416.140320 270.256287,411.755371 
	C270.147766,400.757111 270.221405,389.757050 270.220886,377.820740 
M240.265579,394.562500 
	C236.750763,393.266327 233.235947,391.970154 229.385040,390.550049 
	C229.385040,386.895508 229.385040,382.636230 229.385040,378.321838 
	C231.348618,378.321838 233.034424,378.321838 234.903610,378.321838 
	C234.764816,380.213257 234.658127,381.667419 234.540039,383.276733 
	C236.745712,383.276733 238.785599,383.276733 240.835968,383.276733 
	C240.835968,380.726288 241.399277,378.354431 240.676849,376.477386 
	C239.960785,374.616943 237.986404,371.931152 236.499359,371.889069 
	C226.621490,371.609558 222.283920,369.603394 223.185791,382.514526 
	C223.232101,383.177582 223.191696,383.846649 223.191681,384.512939 
	C223.191330,396.511963 223.191330,396.511963 234.623169,398.467926 
	C234.623169,402.818848 234.623169,407.222076 234.623169,412.114410 
	C232.664032,411.970917 230.994354,411.848602 229.139053,411.712738 
	C229.305237,409.632324 229.419342,408.203918 229.533279,406.777557 
	C227.231720,406.777557 225.205521,406.777557 223.189651,406.777557 
	C223.189651,408.383087 223.165695,409.541870 223.193665,410.699402 
	C223.338882,416.709564 224.627747,417.994659 230.519012,418.023499 
	C232.018112,418.030823 233.518082,417.991913 235.016251,418.029694 
	C238.950394,418.128876 240.867233,416.181458 240.842163,412.297119 
	C240.805634,406.637787 240.731827,400.978699 240.265579,394.562500 
M328.776886,414.898743 
	C329.073883,420.428894 332.623627,417.321442 335.029877,417.643036 
	C332.373962,402.241913 329.783356,387.219543 327.163971,372.030090 
	C325.156128,372.030090 323.037872,372.030090 321.086060,372.030090 
	C318.458252,387.375214 315.867523,402.503754 313.251129,417.782318 
	C315.396118,417.782318 317.326843,417.782318 319.407074,417.782318 
	C319.545013,416.612793 319.451691,415.558197 319.811707,414.691986 
	C320.976868,411.888733 318.448059,406.919739 324.097137,406.717957 
	C329.628754,406.520325 327.222260,411.513550 328.776886,414.898743 
M141.413773,416.525513 
	C141.413773,410.437866 141.413773,404.350189 141.413773,398.098633 
	C143.049881,398.015686 144.361588,397.915405 145.674805,397.888489 
	C151.419464,397.770721 152.725388,396.504669 152.761414,390.860687 
	C152.790100,386.366272 152.773941,381.871521 152.760773,377.376953 
	C152.750137,373.743927 150.955612,371.806946 147.279144,371.779114 
	C143.309723,371.749054 139.339874,371.772308 135.355759,371.772308 
	C135.355759,387.413330 135.355759,402.618896 135.355759,418.277008 
	C137.649567,417.934387 139.563187,417.648560 141.413773,416.525513 
M434.458649,377.647827 
	C436.903107,377.647827 439.347565,377.647827 441.791992,377.647827 
	C442.130737,377.270172 442.469452,376.892548 442.808167,376.514893 
	C441.437592,374.960632 440.211914,372.261322 438.669373,372.066193 
	C433.992188,371.474457 429.192322,371.852081 424.407654,371.852081 
	C424.407654,387.528290 424.407654,402.562592 424.407654,417.774658 
	C430.023682,417.774658 435.429718,417.774658 441.100067,417.774658 
	C441.419067,415.873230 441.706757,414.158539 442.089417,411.877686 
	C437.989014,411.877686 434.428070,411.877686 430.852417,411.877686 
	C430.852417,407.005310 430.852417,402.637115 430.852417,398.234283 
	C432.831573,397.993073 434.380890,397.804260 435.856201,397.624451 
	C435.856201,395.489655 435.856201,393.700806 435.856201,391.652161 
	C434.100128,391.652161 432.552032,391.652161 430.464081,391.652161 
	C430.464081,387.599182 430.279694,383.801361 430.601562,380.046967 
	C430.676331,379.174805 432.475800,378.450439 434.458649,377.647827 
M164.508072,406.481384 
	C164.508072,410.240479 164.508072,413.999573 164.508072,417.853394 
	C170.068527,417.853394 175.367981,417.853394 181.085403,417.853394 
	C181.391922,415.948456 181.683838,414.134308 182.047455,411.874512 
	C177.942673,411.874512 174.510712,411.874512 170.830688,411.874512 
	C170.830688,407.139465 170.830688,402.764282 170.830688,398.225525 
	C172.744766,398.023834 174.314590,397.858429 175.917236,397.689545 
	C175.917236,395.608948 175.917236,393.815430 175.917236,391.733521 
	C174.197540,391.733521 172.647705,391.733521 171.156113,391.733521 
	C168.474640,378.731018 169.387115,377.479126 180.978348,377.827454 
	C181.250824,377.835663 181.533157,377.516785 182.791107,376.763611 
	C181.553467,375.086792 180.508377,372.245667 179.150101,372.087067 
	C174.300720,371.520905 169.345016,371.865601 164.508362,371.865601 
	C164.508362,383.550201 164.508362,394.519104 164.508072,406.481384 
M403.870575,404.466522 
	C406.362885,393.753632 411.916840,383.779144 412.210999,371.837555 
	C407.837372,371.837555 404.028442,372.090271 400.267639,371.772736 
	C395.705688,371.387573 394.217560,373.217438 395.293060,378.027069 
	C398.438049,378.027069 401.654358,378.027069 405.127533,378.027069 
	C402.457642,391.763947 395.540680,403.904846 394.760529,417.655334 
	C400.877777,417.655334 406.111694,417.655334 411.677124,417.655334 
	C411.785004,415.611053 411.874359,413.917572 411.984283,411.834625 
	C408.304138,411.834625 405.223694,411.834625 401.591919,411.834625 
	C402.368256,409.305511 402.992523,407.271729 403.870575,404.466522 
M364.141479,412.038513 
	C360.864563,412.038513 357.587646,412.038513 353.829529,412.038513 
	C353.829529,398.348450 353.829529,385.162231 353.829529,371.905396 
	C351.401245,371.905396 349.468536,371.905396 347.569641,371.905396 
	C347.569641,387.371826 347.569641,402.571228 347.569641,418.026886 
	C351.862396,418.026886 355.873322,417.731232 359.820892,418.105072 
	C364.307587,418.529938 365.468536,416.522064 364.141479,412.038513 
M376.827118,383.563904 
	C376.827118,394.947205 376.827118,406.330505 376.827118,417.742126 
	C378.709229,417.742126 380.624390,417.742126 382.627136,417.742126 
	C382.627136,402.405396 382.627136,387.331543 382.627136,372.250610 
	C380.402985,372.250610 378.375458,372.250610 376.827026,372.250610 
	C376.827026,375.968079 376.827026,379.279022 376.827118,383.563904 
M537.016052,408.373657 
	C537.016052,396.326447 537.016052,384.279236 537.016052,372.129272 
	C534.841248,372.129272 533.104431,372.129272 531.007629,372.129272 
	C531.007629,387.141449 531.005920,401.870636 531.020081,416.599854 
	C531.020386,416.897980 531.206360,417.195953 531.391602,417.751801 
	C533.221741,417.751801 535.121460,417.751801 537.016113,417.751801 
	C537.016113,414.850708 537.016113,412.089325 537.016052,408.373657 
M346.213837,475.964691 
	C351.204163,475.479431 350.947571,480.218445 352.892883,482.735260 
	C354.276794,484.525635 355.437988,486.488129 356.698608,488.373810 
	C357.172729,488.038544 357.646820,487.703247 358.120941,487.367981 
	C356.120300,483.613586 354.119690,479.859222 352.146210,476.155853 
	C357.165680,470.682983 358.292908,465.982056 355.630554,461.952606 
	C353.274902,458.387421 347.015442,457.190277 340.232819,459.189178 
	C340.232819,467.689056 340.178162,476.304993 340.305176,484.918243 
	C340.320282,485.943268 341.326935,486.953644 341.874023,487.970825 
	C342.470856,486.837219 343.311066,485.764984 343.615662,484.557617 
	C344.325226,481.744812 344.777008,478.867004 346.213837,475.964691 
M235.387512,465.712585 
	C235.245972,463.317200 235.104446,460.921844 234.962906,458.526459 
	C234.423828,458.563690 233.884735,458.600891 233.345657,458.638092 
	C233.345657,466.813751 232.989243,475.011780 233.501175,483.155243 
	C233.744675,487.028870 237.298447,488.214111 240.999603,488.149017 
	C244.749390,488.083069 247.933655,486.707031 248.122711,482.709229 
	C248.490402,474.934479 248.256180,467.130676 248.209595,459.339294 
	C248.208038,459.076508 247.541016,458.817719 246.484543,458.046051 
	C246.339401,460.142426 246.151733,461.687988 246.139923,463.234924 
	C246.099274,468.559937 246.095627,473.885620 246.125839,479.210724 
	C246.147217,482.981445 245.049393,485.923737 240.678467,485.998322 
	C236.023148,486.077759 235.483246,482.671478 235.414886,479.143036 
	C235.334305,474.984161 235.390228,470.822571 235.387512,465.712585 
M295.473938,469.729126 
	C295.574493,473.885437 295.511810,478.053894 295.819122,482.194855 
	C296.161530,486.808899 299.224304,488.244080 303.453339,488.153107 
	C307.669952,488.062378 310.725220,486.494049 310.898224,481.908905 
	C311.111481,476.256470 311.157074,470.580322 310.891296,464.932526 
	C310.666473,460.155029 307.689392,457.855621 302.868713,458.098206 
	C297.453125,458.370697 295.661865,460.966492 295.473938,469.729126 
M324.685486,488.094849 
	C331.291870,487.805817 333.088715,486.260162 333.315460,479.898529 
	C333.534393,473.755493 333.423828,467.599152 333.365845,461.449493 
	C333.356598,460.472046 332.862335,459.499176 332.592316,458.524170 
	C331.338104,459.936249 331.098419,461.283997 331.087250,462.633636 
	C331.041809,468.118988 331.029327,473.605255 331.077698,479.090515 
	C331.113129,483.107239 329.865906,486.148804 325.264404,486.015350 
	C320.782104,485.885284 320.148346,482.490234 320.105835,478.954956 
	C320.043945,473.802429 320.117676,468.648346 320.071014,463.495514 
	C320.056152,461.854645 319.842041,460.215576 319.719086,458.575653 
	C319.276001,458.618744 318.832947,458.661835 318.389862,458.704926 
	C318.389862,467.001770 318.106354,475.316803 318.636932,483.579559 
	C318.739014,485.169342 322.035095,486.554077 324.685486,488.094849 
M379.196106,480.340363 
	C379.913940,482.930298 380.631744,485.520264 381.349579,488.110199 
	C381.901642,488.103607 382.453674,488.096985 383.005737,488.090393 
	C385.060577,478.525269 387.115417,468.960175 389.170288,459.395050 
	C388.619324,459.269073 388.068390,459.143097 387.517426,459.017151 
	C385.817261,466.266571 384.117126,473.516022 382.416962,480.765442 
	C382.085114,480.738251 381.753296,480.711029 381.421448,480.683807 
	C379.746765,473.214844 378.072083,465.745880 376.397400,458.276947 
	C375.742798,458.449280 375.088165,458.621643 374.433563,458.794006 
	C375.969147,465.705109 377.504730,472.616241 379.196106,480.340363 
M431.602356,487.624237 
	C432.320343,486.402618 433.727692,485.130402 433.642426,483.967682 
	C433.154602,477.316864 434.490387,471.179749 437.652924,465.328125 
	C438.755432,463.288208 439.354736,460.976410 440.183868,458.788788 
	C439.594574,458.522949 439.005310,458.257080 438.416016,457.991211 
	C436.487122,462.239136 434.558258,466.487030 432.415527,471.205841 
	C430.154938,466.388550 428.156464,462.129791 426.157959,457.871033 
	C425.444855,458.150391 424.731720,458.429749 424.018585,458.709106 
	C428.836151,467.563477 432.471375,476.674072 431.602356,487.624237 
M392.884033,474.530487 
	C392.192688,472.028259 391.501373,469.526031 390.810028,467.023804 
	C390.298676,467.164276 389.787323,467.304779 389.275970,467.445251 
	C390.757202,474.341492 392.238403,481.237701 393.719635,488.133942 
	C394.384583,488.125793 395.049530,488.117676 395.714478,488.109528 
	C397.904602,478.373291 400.094696,468.637054 402.284821,458.900787 
	C401.600372,458.738434 400.915924,458.576080 400.231476,458.413696 
	C398.573822,465.886169 396.916168,473.358673 395.258545,480.831146 
	C394.940552,480.764008 394.622589,480.696869 394.304626,480.629761 
	C393.872223,478.863037 393.439819,477.096344 392.884033,474.530487 
M276.390900,462.263367 
	C280.963318,470.147095 283.031860,478.696991 281.829437,488.117096 
	C282.739197,488.106384 283.648987,488.095673 284.558777,488.084961 
	C281.769440,477.124023 286.938110,468.034363 291.207184,458.733154 
	C290.555664,458.488678 289.904175,458.244232 289.252686,457.999756 
	C287.271637,462.108337 285.290588,466.216888 282.951233,471.068634 
	C280.647919,466.191681 278.707855,462.083893 276.767792,457.976074 
	C276.313141,458.175293 275.858490,458.374512 275.403839,458.573730 
	C275.628937,459.584534 275.854004,460.595337 276.390900,462.263367 
M257.574554,458.785919 
	C256.883545,459.758911 255.613708,460.719818 255.593170,461.706787 
	C255.430206,469.533142 255.475449,477.364716 255.544907,485.193909 
	C255.553284,486.139130 256.087219,487.079681 256.377533,488.022369 
	C256.906769,487.976318 257.436035,487.930237 257.965271,487.884155 
	C257.965271,478.419281 257.965271,468.954437 257.574554,458.785919 
M484.047607,412.277039 
	C483.635681,413.811768 482.989594,415.346008 482.986603,416.881531 
	C482.985901,417.238098 485.251862,418.010376 486.333344,417.813629 
	C487.057739,417.681824 488.227783,415.763550 487.989868,415.363800 
	C487.239746,414.103088 485.919708,413.181458 484.047607,412.277039 
z"/>
<path fill="#6F63E7" opacity="1.000000" stroke="none" 
	d="
M392.701904,288.467224 
	C370.744995,301.060272 349.104187,313.437927 327.610382,325.731537 
	C324.123138,323.027130 326.287445,322.030182 328.277893,320.916626 
	C343.815735,312.224030 359.351837,303.528168 374.871063,294.802368 
	C379.224548,292.354584 383.642303,289.984894 387.772888,287.197510 
	C389.136169,286.277557 390.476746,284.165161 390.492767,282.584412 
	C390.680481,264.088226 390.677673,245.588852 390.501129,227.092438 
	C390.485748,225.479538 389.235504,223.465393 387.939117,222.373367 
	C385.935211,220.685379 383.252472,219.829254 381.115967,218.266998 
	C377.347229,215.511215 375.073853,218.578720 372.179108,219.829742 
	C372.478455,220.435471 372.548126,220.855072 372.736450,220.917664 
	C383.033844,224.340179 385.031219,231.714218 384.255280,241.790176 
	C383.323914,253.883896 384.143799,266.106140 383.911346,278.267120 
	C383.878082,280.006775 382.642731,282.490845 381.206757,283.320953 
	C360.318176,295.396179 339.301331,307.249451 318.308197,319.143585 
	C317.893097,319.378723 317.394928,319.467224 316.905182,319.634491 
	C314.068024,316.927307 316.565643,316.129456 318.418335,315.077576 
	C337.660492,304.152252 356.849640,293.131866 376.184143,282.372620 
	C379.564636,280.491455 380.787262,278.421021 380.711853,274.556458 
	C380.455170,261.396118 380.475586,248.225449 380.696564,235.063873 
	C380.759735,231.299973 380.041168,228.621582 376.284210,227.216782 
	C374.900330,226.699326 373.564697,225.897858 372.398132,224.982422 
	C368.490540,221.916000 365.157410,222.633850 361.991974,226.413223 
	C362.521423,226.826111 362.952881,227.379807 363.506592,227.562073 
	C373.116882,230.725693 374.903381,237.724503 374.059235,246.925552 
	C373.301239,255.188461 374.077026,263.582458 373.765625,271.903290 
	C373.695190,273.784668 372.406097,276.426605 370.865479,277.324921 
	C350.459900,289.222931 329.921417,300.893646 309.358551,312.519257 
	C308.319427,313.106720 306.756653,312.767914 305.437683,312.860382 
	C305.312805,312.250122 305.187897,311.639862 305.063019,311.029602 
	C317.340424,304.054779 329.616211,297.077087 341.895813,290.106140 
	C350.717133,285.098419 359.591858,280.180847 368.306671,274.994385 
	C369.397949,274.344940 370.195587,272.304626 370.215881,270.895660 
	C370.371674,260.065674 370.393707,249.230743 370.192200,238.402283 
	C370.165192,236.950974 368.927124,235.228073 367.761810,234.166885 
	C366.319550,232.853470 364.238922,232.269119 362.661743,231.070267 
	C358.883850,228.198639 355.439301,228.422943 351.791016,232.091599 
	C353.005524,232.920334 354.056122,234.027954 355.332214,234.443848 
	C362.978058,236.935730 364.843872,242.309341 364.017487,249.789444 
	C363.417206,255.222595 364.160736,260.794586 363.757629,266.264343 
	C363.616821,268.174835 362.309814,270.776031 360.738434,271.686737 
	C340.440002,283.450867 320.011261,294.990814 299.555908,306.481415 
	C298.386261,307.138489 296.702118,306.879639 295.257416,307.047058 
	C295.100372,306.419891 294.943329,305.792755 294.786285,305.165619 
	C304.244171,299.700836 313.671448,294.182220 323.167847,288.785278 
	C334.301849,282.457611 345.454742,276.160156 356.695740,270.026062 
	C359.223358,268.646759 360.270508,267.086060 360.166809,264.169922 
	C359.947815,258.011688 359.934875,251.833984 360.169281,245.676895 
	C360.285004,242.636398 359.551941,240.551498 356.602692,239.427521 
	C355.683533,239.077209 354.806854,238.516022 354.034180,237.897217 
	C349.731110,234.451019 345.441284,233.312546 341.168304,238.063431 
	C341.169647,238.067017 341.196075,238.520401 341.392090,238.612366 
	C354.183319,244.614334 356.020782,248.004303 353.576294,262.054169 
	C353.343689,263.391022 351.950043,264.903778 350.689362,265.627411 
	C329.915070,277.552063 309.099609,289.406097 288.196136,301.102264 
	C286.812988,301.876160 284.648529,301.259369 282.847382,301.270477 
	C282.700897,301.271393 282.553741,301.124481 282.406494,301.047058 
	C269.099121,294.048309 269.099457,294.048340 269.099762,279.090271 
	C269.100128,259.425629 269.007935,239.759918 269.239807,220.098022 
	C269.263428,218.093765 270.714142,215.235535 272.376617,214.254166 
	C292.161102,202.575348 312.096405,191.151154 332.053192,179.767166 
	C333.341736,179.032150 335.130890,179.174713 336.687134,178.909042 
	C336.868134,179.553696 337.049133,180.198364 337.230103,180.843018 
	C327.777252,186.323029 318.329712,191.812286 308.870087,197.280624 
	C298.060425,203.529358 287.300232,209.868057 276.382324,215.921982 
	C273.622131,217.452499 272.824585,219.237579 272.839966,222.235977 
	C272.951263,243.899841 272.989136,265.565308 272.806000,287.228180 
	C272.777649,290.579742 273.796326,292.506775 276.738770,293.781372 
	C278.255463,294.438385 279.814148,295.217285 281.033661,296.301331 
	C284.949280,299.781952 288.041168,298.345154 291.403778,294.649963 
	C288.395355,292.866943 285.677368,291.000153 282.740448,289.588959 
	C279.924103,288.235687 279.208496,286.311951 279.231171,283.287994 
	C279.373718,264.291016 279.363220,245.292084 279.241791,226.294815 
	C279.222534,223.281265 280.085358,221.462875 282.783356,219.925064 
	C301.731293,209.124924 320.575714,198.143372 339.491089,187.285721 
	C341.747162,185.990692 344.231384,185.093124 346.609863,184.011292 
	C347.022400,184.362015 347.434967,184.712738 347.847504,185.063477 
	C346.811279,186.250977 345.996887,187.824951 344.704742,188.566681 
	C330.570801,196.680115 316.356628,204.653702 302.176727,212.687347 
	C296.817993,215.723328 291.360779,218.617920 286.228363,222.001587 
	C284.643372,223.046509 283.065186,225.482986 283.042053,227.302155 
	C282.808929,245.630630 282.823547,263.964081 283.026520,282.293274 
	C283.045380,283.995880 284.543488,285.981628 285.887787,287.286926 
	C287.269775,288.628815 289.442566,289.113983 291.027374,290.297913 
	C294.717468,293.054504 297.973572,292.769775 301.463348,288.695740 
	C298.554169,286.985931 295.421021,285.563721 292.835907,283.466156 
	C291.312469,282.230011 289.779846,279.936462 289.751099,278.095093 
	C289.509155,262.600464 289.549377,247.099792 289.706573,231.602982 
	C289.723907,229.894791 290.517609,227.361923 291.778503,226.622864 
	C313.156525,214.092239 334.665588,201.785141 356.065613,189.474716 
	C359.904449,192.702927 356.739410,193.626892 354.959503,194.639709 
	C341.372864,202.370911 327.732880,210.008301 314.128174,217.707886 
	C308.043701,221.151398 301.898743,224.509018 296.014160,228.270065 
	C294.555603,229.202271 293.190643,231.540771 293.163666,233.254562 
	C292.938019,247.582870 292.939941,261.917725 293.160797,276.246155 
	C293.187012,277.945892 294.676666,279.871796 295.972504,281.230896 
	C297.188171,282.505890 299.214386,282.970215 300.589935,284.137665 
	C304.635376,287.571075 308.236542,287.003357 311.858765,283.114441 
	C311.179291,282.630585 310.592682,281.959930 309.867828,281.735046 
	C300.584076,278.854431 298.653076,272.288696 299.449371,263.332001 
	C300.213745,254.734207 299.432007,246.008270 299.758331,237.354828 
	C299.828400,235.496460 301.283478,232.924438 302.868439,232.005295 
	C323.016968,220.320724 343.294434,208.857925 363.586090,197.422104 
	C364.860138,196.704086 366.524292,196.678268 368.006958,196.330414 
	C368.227722,196.982803 368.448486,197.635193 368.669250,198.287582 
	C364.735596,200.591202 360.828094,202.940903 356.863708,205.190353 
	C340.513367,214.467819 324.195740,223.805328 307.743256,232.898544 
	C304.363861,234.766327 303.167572,236.916534 303.288086,240.760635 
	C303.585571,250.250336 303.536774,259.759308 303.305786,269.252686 
	C303.221680,272.709717 304.155334,275.003448 307.403259,276.312805 
	C308.628754,276.806854 309.747162,277.570496 310.905060,278.227661 
	C316.299957,281.289612 316.298767,281.291687 322.011597,277.470398 
	C321.175415,276.879272 320.496155,276.134033 319.660004,275.848938 
	C311.253601,272.982697 308.667480,267.144318 309.833221,258.583771 
	C310.546204,253.348007 309.804047,247.928070 310.068420,242.608414 
	C310.144165,241.084427 311.051086,238.926346 312.253448,238.234085 
	C333.723114,225.873077 355.297058,213.693192 376.913239,201.437714 
	C380.131042,204.489471 377.103363,205.353836 375.327698,206.361908 
	C361.004883,214.493286 346.638824,222.548447 332.299591,230.650955 
	C327.082184,233.599121 321.740417,236.374725 316.794159,239.728683 
	C315.121216,240.863052 313.684357,243.478653 313.538086,245.517624 
	C313.109955,251.486267 313.552277,257.511902 313.319489,263.502228 
	C313.193359,266.747559 314.085175,268.942688 317.180298,270.195068 
	C318.556671,270.752014 319.936707,271.478668 321.071411,272.421600 
	C324.973724,275.664337 328.529755,275.351532 332.070068,271.424683 
	C331.229706,270.808960 330.374329,270.155609 329.492188,269.540649 
	C326.403809,267.387634 321.430481,265.789001 320.621521,262.984955 
	C319.156036,257.905273 320.048615,252.105118 320.268829,246.618286 
	C320.306152,245.688522 321.756958,244.562958 322.804108,243.963531 
	C343.733093,231.982758 364.698669,220.065964 385.657257,208.136902 
	C385.946716,207.972137 386.229858,207.790024 386.534485,207.659134 
	C390.002228,206.169373 404.349640,215.094971 404.358215,218.893051 
	C404.412292,242.890457 404.440277,266.888458 404.250610,290.884491 
	C404.238922,292.362152 402.622253,294.372131 401.205566,295.210205 
	C385.442963,304.534760 369.559631,313.654968 353.738953,322.881866 
	C349.057312,325.612366 344.514832,328.583801 339.799316,331.251678 
	C338.934601,331.740845 337.542908,331.298584 336.394470,331.286316 
	C336.770630,330.142883 336.799103,328.508331 337.588898,327.949219 
	C339.851685,326.347473 342.451691,325.231232 344.868713,323.836731 
	C362.609619,313.600922 380.373535,303.403473 398.005432,292.982910 
	C399.463318,292.121307 400.826141,289.708893 400.840637,288.005219 
	C401.029083,265.842468 401.028351,243.677017 400.843109,221.514175 
	C400.828705,219.791016 399.327240,217.857315 398.053711,216.436768 
	C396.995758,215.256699 395.109314,214.864716 393.844299,213.816605 
	C389.662018,210.351501 385.804169,210.559677 382.059662,214.635422 
	C383.131927,215.334564 384.148285,216.331848 385.361847,216.734085 
	C393.044006,219.280197 394.884094,224.512024 394.584991,232.347412 
	C393.937073,249.320923 394.422791,266.336517 394.325775,283.334198 
	C394.316406,284.975830 393.473816,286.612732 392.701904,288.467224 
M325.683746,263.415253 
	C328.428162,264.973114 331.137543,266.598419 333.936188,268.051819 
	C334.897949,268.551270 336.174774,269.038605 337.151184,268.822906 
	C346.577576,266.740936 350.209229,262.228241 350.030853,252.585739 
	C349.991760,250.474823 349.670349,247.296982 348.336517,246.483353 
	C344.349335,244.051147 339.606110,240.649323 335.500366,241.058716 
	C325.510559,242.054794 320.444702,253.780960 325.683746,263.415253 
z"/>
<path fill="#6A5DE6" opacity="1.000000" stroke="none" 
	d="
M295.928528,380.189484 
	C295.928558,377.272552 295.928558,374.828125 295.928558,372.106201 
	C297.679810,372.106201 299.593994,372.106201 301.721680,372.106201 
	C301.721680,387.323212 301.721680,402.395081 301.721680,417.529327 
	C297.454620,419.091492 295.390717,417.693726 294.478760,413.226837 
	C293.264496,407.279541 291.434357,401.457977 289.160706,395.699738 
	C289.160706,402.862366 289.160706,410.025024 289.160706,417.602966 
	C287.055084,417.602966 285.173370,417.602966 282.947693,417.602966 
	C282.947693,402.690308 282.947693,387.522766 282.947693,372.306793 
	C287.585419,370.503815 289.306183,372.609833 290.229370,377.050446 
	C291.501831,383.170959 293.414795,389.158356 295.928467,395.118256 
	C295.928467,390.299500 295.928467,385.480774 295.928528,380.189484 
z"/>
<path fill="#6B5EE6" opacity="1.000000" stroke="none" 
	d="
M470.933319,402.979858 
	C470.930878,406.630859 471.529846,409.952576 470.717316,412.882965 
	C470.164124,414.878143 467.845062,417.428589 465.946960,417.788971 
	C461.968750,418.544281 457.747253,418.018036 453.360168,418.018036 
	C453.360168,402.478577 453.360168,387.298553 453.360168,371.668701 
	C457.714294,371.668701 462.015350,371.477112 466.290253,371.729187 
	C469.723419,371.931641 470.962952,374.304169 470.944763,377.576172 
	C470.898590,385.878510 470.931885,394.181274 470.933319,402.979858 
M459.193176,410.060638 
	C460.846436,410.891052 462.499725,411.721497 464.703430,412.828369 
	C464.703430,400.258698 464.703430,389.196136 464.703430,378.203430 
	C460.536163,376.782898 458.997620,377.995026 459.099152,382.223480 
	C459.314514,391.192078 459.165436,400.169434 459.193176,410.060638 
z"/>
<path fill="#675AE6" opacity="1.000000" stroke="none" 
	d="
M208.422119,397.542358 
	C209.086868,404.434418 209.946274,410.966400 210.840027,417.759430 
	C208.763489,417.759430 206.823624,417.759430 204.953110,417.759430 
	C203.984848,411.116089 203.024216,404.524994 202.063583,397.933929 
	C201.386078,397.955811 200.708557,397.977692 200.031052,397.999573 
	C198.309402,404.292847 199.554596,410.813812 199.443390,417.630737 
	C197.707809,417.630737 195.678818,417.630737 193.417557,417.630737 
	C193.417557,402.631378 193.417557,387.581757 193.417557,371.867065 
	C197.844254,371.867065 202.306702,371.506348 206.653137,372.058685 
	C208.218491,372.257599 210.600525,374.560760 210.724564,376.059662 
	C211.202713,381.838013 211.050766,387.684845 210.813766,393.493103 
	C210.762451,394.750610 209.383972,395.953949 208.422119,397.542358 
M199.883759,378.246155 
	C199.578659,382.627106 199.273544,387.008057 198.953613,391.601868 
	C201.437836,391.601868 203.115433,391.601868 204.825684,391.601868 
	C204.825684,386.925049 204.825684,382.652863 204.825684,378.104980 
	C203.309998,378.035645 202.022385,377.976715 199.883759,378.246155 
z"/>
<path fill="#675AE6" opacity="1.000000" stroke="none" 
	d="
M517.913330,405.916901 
	C517.912781,406.902161 517.912292,407.401306 517.912170,407.900421 
	C517.909058,417.505493 513.130920,421.108124 504.046051,417.682098 
	C502.299347,417.023376 500.618622,413.633575 500.564484,411.462341 
	C500.241547,398.513214 500.404724,385.551971 500.404724,372.220215 
	C502.366882,372.220215 504.388824,372.220215 506.454712,372.220215 
	C506.454712,385.411224 506.454712,398.458984 506.454712,411.809875 
	C508.298248,411.809875 509.865448,411.809875 511.829712,411.809875 
	C511.829712,398.613586 511.829712,385.548676 511.829712,372.170410 
	C513.954956,372.170410 515.694336,372.170410 517.913635,372.170410 
	C517.913635,383.263214 517.913635,394.346985 517.913330,405.916901 
z"/>
<path fill="#675AE6" opacity="1.000000" stroke="none" 
	d="
M270.221436,378.289215 
	C270.221405,389.757050 270.147766,400.757111 270.256287,411.755371 
	C270.299530,416.140320 268.562164,418.314331 264.034576,418.030884 
	C262.042480,417.906189 259.723938,418.641296 258.115387,417.847504 
	C256.112610,416.859283 253.299484,414.742035 253.240768,413.029877 
	C252.824097,400.878326 252.847488,388.700104 253.235413,376.546478 
	C253.286865,374.934692 255.940399,372.826385 257.843231,372.019165 
	C259.680237,371.239899 262.108795,371.928223 264.270630,371.826019 
	C268.519745,371.625092 270.435577,373.640717 270.221436,378.289215 
M264.705444,381.802002 
	C265.063721,376.829956 262.242737,377.523346 259.186157,378.367981 
	C259.186157,389.717346 259.186157,400.743774 259.186157,411.675018 
	C263.380188,413.025421 264.892975,411.762360 264.777527,407.583099 
	C264.548889,399.306549 264.707367,391.019287 264.705444,381.802002 
z"/>
<path fill="#6C5FE6" opacity="1.000000" stroke="none" 
	d="
M240.469742,394.940979 
	C240.731827,400.978699 240.805634,406.637787 240.842163,412.297119 
	C240.867233,416.181458 238.950394,418.128876 235.016251,418.029694 
	C233.518082,417.991913 232.018112,418.030823 230.519012,418.023499 
	C224.627747,417.994659 223.338882,416.709564 223.193665,410.699402 
	C223.165695,409.541870 223.189651,408.383087 223.189651,406.777557 
	C225.205521,406.777557 227.231720,406.777557 229.533279,406.777557 
	C229.419342,408.203918 229.305237,409.632324 229.139053,411.712738 
	C230.994354,411.848602 232.664032,411.970917 234.623169,412.114410 
	C234.623169,407.222076 234.623169,402.818848 234.623169,398.467926 
	C223.191330,396.511963 223.191330,396.511963 223.191681,384.512939 
	C223.191696,383.846649 223.232101,383.177582 223.185791,382.514526 
	C222.283920,369.603394 226.621490,371.609558 236.499359,371.889069 
	C237.986404,371.931152 239.960785,374.616943 240.676849,376.477386 
	C241.399277,378.354431 240.835968,380.726288 240.835968,383.276733 
	C238.785599,383.276733 236.745712,383.276733 234.540039,383.276733 
	C234.658127,381.667419 234.764816,380.213257 234.903610,378.321838 
	C233.034424,378.321838 231.348618,378.321838 229.385040,378.321838 
	C229.385040,382.636230 229.385040,386.895508 229.385040,390.550049 
	C233.235947,391.970154 236.750763,393.266327 240.469742,394.940979 
z"/>
<path fill="#695DE6" opacity="1.000000" stroke="none" 
	d="
M328.680756,414.476990 
	C327.222260,411.513550 329.628754,406.520325 324.097137,406.717957 
	C318.448059,406.919739 320.976868,411.888733 319.811707,414.691986 
	C319.451691,415.558197 319.545013,416.612793 319.407074,417.782318 
	C317.326843,417.782318 315.396118,417.782318 313.251129,417.782318 
	C315.867523,402.503754 318.458252,387.375214 321.086060,372.030090 
	C323.037872,372.030090 325.156128,372.030090 327.163971,372.030090 
	C329.783356,387.219543 332.373962,402.241913 335.029877,417.643036 
	C332.623627,417.321442 329.073883,420.428894 328.680756,414.476990 
M326.003693,399.145477 
	C325.509735,396.489960 325.015747,393.834442 324.521759,391.178925 
	C324.147034,391.242096 323.772278,391.305298 323.397522,391.368500 
	C322.946472,394.206360 322.495453,397.044250 321.915924,400.690521 
	C323.569824,400.358185 324.687103,400.133667 326.003693,399.145477 
z"/>
<path fill="#6B5EE6" opacity="1.000000" stroke="none" 
	d="
M141.445282,416.944122 
	C139.563187,417.648560 137.649567,417.934387 135.355759,418.277008 
	C135.355759,402.618896 135.355759,387.413330 135.355759,371.772308 
	C139.339874,371.772308 143.309723,371.749054 147.279144,371.779114 
	C150.955612,371.806946 152.750137,373.743927 152.760773,377.376953 
	C152.773941,381.871521 152.790100,386.366272 152.761414,390.860687 
	C152.725388,396.504669 151.419464,397.770721 145.674805,397.888489 
	C144.361588,397.915405 143.049881,398.015686 141.413773,398.098633 
	C141.413773,404.350189 141.413773,410.437866 141.445282,416.944122 
M141.032242,380.763214 
	C141.032242,384.365356 141.032242,387.967529 141.032242,391.703918 
	C143.214279,391.703918 144.782120,391.703918 146.892502,391.703918 
	C146.892502,389.306488 146.892502,387.190735 146.892502,385.074951 
	C146.892502,382.807770 146.892502,380.540588 146.892502,376.735291 
	C144.195023,378.169739 142.624115,379.005096 141.032242,380.763214 
z"/>
<path fill="#675AE6" opacity="1.000000" stroke="none" 
	d="
M433.970154,377.652954 
	C432.475800,378.450439 430.676331,379.174805 430.601562,380.046967 
	C430.279694,383.801361 430.464081,387.599182 430.464081,391.652161 
	C432.552032,391.652161 434.100128,391.652161 435.856201,391.652161 
	C435.856201,393.700806 435.856201,395.489655 435.856201,397.624451 
	C434.380890,397.804260 432.831573,397.993073 430.852417,398.234283 
	C430.852417,402.637115 430.852417,407.005310 430.852417,411.877686 
	C434.428070,411.877686 437.989014,411.877686 442.089417,411.877686 
	C441.706757,414.158539 441.419067,415.873230 441.100067,417.774658 
	C435.429718,417.774658 430.023682,417.774658 424.407654,417.774658 
	C424.407654,402.562592 424.407654,387.528290 424.407654,371.852081 
	C429.192322,371.852081 433.992188,371.474457 438.669373,372.066193 
	C440.211914,372.261322 441.437592,374.960632 442.808167,376.514893 
	C442.469452,376.892548 442.130737,377.270172 441.791992,377.647827 
	C439.347565,377.647827 436.903107,377.647827 433.970154,377.652954 
z"/>
<path fill="#675AE6" opacity="1.000000" stroke="none" 
	d="
M164.508209,405.984711 
	C164.508362,394.519104 164.508362,383.550201 164.508362,371.865601 
	C169.345016,371.865601 174.300720,371.520905 179.150101,372.087067 
	C180.508377,372.245667 181.553467,375.086792 182.791107,376.763611 
	C181.533157,377.516785 181.250824,377.835663 180.978348,377.827454 
	C169.387115,377.479126 168.474640,378.731018 171.156113,391.733521 
	C172.647705,391.733521 174.197540,391.733521 175.917236,391.733521 
	C175.917236,393.815430 175.917236,395.608948 175.917236,397.689545 
	C174.314590,397.858429 172.744766,398.023834 170.830688,398.225525 
	C170.830688,402.764282 170.830688,407.139465 170.830688,411.874512 
	C174.510712,411.874512 177.942673,411.874512 182.047455,411.874512 
	C181.683838,414.134308 181.391922,415.948456 181.085403,417.853394 
	C175.367981,417.853394 170.068527,417.853394 164.508072,417.853394 
	C164.508072,413.999573 164.508072,410.240479 164.508209,405.984711 
z"/>
<path fill="#685CE6" opacity="1.000000" stroke="none" 
	d="
M403.743683,404.852234 
	C402.992523,407.271729 402.368256,409.305511 401.591919,411.834625 
	C405.223694,411.834625 408.304138,411.834625 411.984283,411.834625 
	C411.874359,413.917572 411.785004,415.611053 411.677124,417.655334 
	C406.111694,417.655334 400.877777,417.655334 394.760529,417.655334 
	C395.540680,403.904846 402.457642,391.763947 405.127533,378.027069 
	C401.654358,378.027069 398.438049,378.027069 395.293060,378.027069 
	C394.217560,373.217438 395.705688,371.387573 400.267639,371.772736 
	C404.028442,372.090271 407.837372,371.837555 412.210999,371.837555 
	C411.916840,383.779144 406.362885,393.753632 403.743683,404.852234 
z"/>
<path fill="#6C60E7" opacity="1.000000" stroke="none" 
	d="
M364.503174,412.316772 
	C365.468536,416.522064 364.307587,418.529938 359.820892,418.105072 
	C355.873322,417.731232 351.862396,418.026886 347.569641,418.026886 
	C347.569641,402.571228 347.569641,387.371826 347.569641,371.905396 
	C349.468536,371.905396 351.401245,371.905396 353.829529,371.905396 
	C353.829529,385.162231 353.829529,398.348450 353.829529,412.038513 
	C357.587646,412.038513 360.864563,412.038513 364.503174,412.316772 
z"/>
<path fill="#6659E5" opacity="1.000000" stroke="none" 
	d="
M376.827087,383.076935 
	C376.827026,379.279022 376.827026,375.968079 376.827026,372.250610 
	C378.375458,372.250610 380.402985,372.250610 382.627136,372.250610 
	C382.627136,387.331543 382.627136,402.405396 382.627136,417.742126 
	C380.624390,417.742126 378.709229,417.742126 376.827118,417.742126 
	C376.827118,406.330505 376.827118,394.947205 376.827087,383.076935 
z"/>
<path fill="#695DE6" opacity="1.000000" stroke="none" 
	d="
M537.016113,408.850800 
	C537.016113,412.089325 537.016113,414.850708 537.016113,417.751801 
	C535.121460,417.751801 533.221741,417.751801 531.391602,417.751801 
	C531.206360,417.195953 531.020386,416.897980 531.020081,416.599854 
	C531.005920,401.870636 531.007629,387.141449 531.007629,372.129272 
	C533.104431,372.129272 534.841248,372.129272 537.016052,372.129272 
	C537.016052,384.279236 537.016052,396.326447 537.016113,408.850800 
z"/>
<path fill="#7C71E9" opacity="1.000000" stroke="none" 
	d="
M345.773560,475.990112 
	C344.777008,478.867004 344.325226,481.744812 343.615662,484.557617 
	C343.311066,485.764984 342.470856,486.837219 341.874023,487.970825 
	C341.326935,486.953644 340.320282,485.943268 340.305176,484.918243 
	C340.178162,476.304993 340.232819,467.689056 340.232819,459.189178 
	C347.015442,457.190277 353.274902,458.387421 355.630554,461.952606 
	C358.292908,465.982056 357.165680,470.682983 352.146210,476.155853 
	C354.119690,479.859222 356.120300,483.613586 358.120941,487.367981 
	C357.646820,487.703247 357.172729,488.038544 356.698608,488.373810 
	C355.437988,486.488129 354.276794,484.525635 352.892883,482.735260 
	C350.947571,480.218445 351.204163,475.479431 345.773560,475.990112 
M344.551453,461.061737 
	C344.166199,465.152527 343.780914,469.243317 343.402985,473.255951 
	C352.142731,474.390747 356.374908,470.538635 354.150787,464.598114 
	C352.538055,460.290497 348.898010,460.821075 344.551453,461.061737 
z"/>
<path fill="#756AE8" opacity="1.000000" stroke="none" 
	d="
M235.387238,466.187378 
	C235.390228,470.822571 235.334305,474.984161 235.414886,479.143036 
	C235.483246,482.671478 236.023148,486.077759 240.678467,485.998322 
	C245.049393,485.923737 246.147217,482.981445 246.125839,479.210724 
	C246.095627,473.885620 246.099274,468.559937 246.139923,463.234924 
	C246.151733,461.687988 246.339401,460.142426 246.484543,458.046051 
	C247.541016,458.817719 248.208038,459.076508 248.209595,459.339294 
	C248.256180,467.130676 248.490402,474.934479 248.122711,482.709229 
	C247.933655,486.707031 244.749390,488.083069 240.999603,488.149017 
	C237.298447,488.214111 233.744675,487.028870 233.501175,483.155243 
	C232.989243,475.011780 233.345657,466.813751 233.345657,458.638092 
	C233.884735,458.600891 234.423828,458.563690 234.962906,458.526459 
	C235.104446,460.921844 235.245972,463.317200 235.387238,466.187378 
z"/>
<path fill="#7166E7" opacity="1.000000" stroke="none" 
	d="
M295.475098,469.270020 
	C295.661865,460.966492 297.453125,458.370697 302.868713,458.098206 
	C307.689392,457.855621 310.666473,460.155029 310.891296,464.932526 
	C311.157074,470.580322 311.111481,476.256470 310.898224,481.908905 
	C310.725220,486.494049 307.669952,488.062378 303.453339,488.153107 
	C299.224304,488.244080 296.161530,486.808899 295.819122,482.194855 
	C295.511810,478.053894 295.574493,473.885437 295.475098,469.270020 
M301.883026,460.424133 
	C300.556641,462.284821 298.320587,464.037994 298.085419,466.027649 
	C297.524231,470.775238 297.838287,475.635803 297.933197,480.448090 
	C297.995209,483.592560 299.157745,485.982239 302.830719,486.063232 
	C306.730896,486.149292 308.717224,484.076569 308.842529,480.329803 
	C308.986725,476.018219 308.822571,471.697113 308.914886,467.382782 
	C309.008179,463.021759 307.297729,460.381378 301.883026,460.424133 
z"/>
<path fill="#6F63E7" opacity="1.000000" stroke="none" 
	d="
M324.271606,488.064117 
	C322.035095,486.554077 318.739014,485.169342 318.636932,483.579559 
	C318.106354,475.316803 318.389862,467.001770 318.389862,458.704926 
	C318.832947,458.661835 319.276001,458.618744 319.719086,458.575653 
	C319.842041,460.215576 320.056152,461.854645 320.071014,463.495514 
	C320.117676,468.648346 320.043945,473.802429 320.105835,478.954956 
	C320.148346,482.490234 320.782104,485.885284 325.264404,486.015350 
	C329.865906,486.148804 331.113129,483.107239 331.077698,479.090515 
	C331.029327,473.605255 331.041809,468.118988 331.087250,462.633636 
	C331.098419,461.283997 331.338104,459.936249 332.592316,458.524170 
	C332.862335,459.499176 333.356598,460.472046 333.365845,461.449493 
	C333.423828,467.599152 333.534393,473.755493 333.315460,479.898529 
	C333.088715,486.260162 331.291870,487.805817 324.271606,488.064117 
z"/>
<path fill="#7C71E9" opacity="1.000000" stroke="none" 
	d="
M379.118225,479.933838 
	C377.504730,472.616241 375.969147,465.705109 374.433563,458.794006 
	C375.088165,458.621643 375.742798,458.449280 376.397400,458.276947 
	C378.072083,465.745880 379.746765,473.214844 381.421448,480.683807 
	C381.753296,480.711029 382.085114,480.738251 382.416962,480.765442 
	C384.117126,473.516022 385.817261,466.266571 387.517426,459.017151 
	C388.068390,459.143097 388.619324,459.269073 389.170288,459.395050 
	C387.115417,468.960175 385.060577,478.525269 383.005737,488.090393 
	C382.453674,488.096985 381.901642,488.103607 381.349579,488.110199 
	C380.631744,485.520264 379.913940,482.930298 379.118225,479.933838 
z"/>
<path fill="#8177EA" opacity="1.000000" stroke="none" 
	d="
M431.404785,487.235291 
	C432.471375,476.674072 428.836151,467.563477 424.018585,458.709106 
	C424.731720,458.429749 425.444855,458.150391 426.157959,457.871033 
	C428.156464,462.129791 430.154938,466.388550 432.415527,471.205841 
	C434.558258,466.487030 436.487122,462.239136 438.416016,457.991211 
	C439.005310,458.257080 439.594574,458.522949 440.183868,458.788788 
	C439.354736,460.976410 438.755432,463.288208 437.652924,465.328125 
	C434.490387,471.179749 433.154602,477.316864 433.642426,483.967682 
	C433.727692,485.130402 432.320343,486.402618 431.404785,487.235291 
z"/>
<path fill="#7C71E9" opacity="1.000000" stroke="none" 
	d="
M416.014893,466.598114 
	C418.183319,473.571289 420.351746,480.544464 422.872650,488.651031 
	C417.564728,486.287872 420.816772,479.094330 413.663025,479.160980 
	C406.722656,479.225647 408.234131,484.785889 406.176880,488.069946 
	C405.628998,487.845215 405.081085,487.620453 404.533173,487.395691 
	C406.546875,480.178833 408.560547,472.961975 410.895996,465.571472 
	C411.368988,465.503052 411.472076,465.643646 411.305023,466.051147 
	C410.742249,469.772675 410.401459,473.262634 410.041290,476.950745 
	C412.465302,476.950745 414.546356,476.950745 416.547424,476.950745 
	C416.727905,476.370361 416.951630,476.040649 416.897186,475.766083 
	C416.319336,472.851868 415.697296,469.946411 415.338623,466.969177 
	C415.731537,466.799255 415.873199,466.698669 416.014893,466.598114 
z"/>
<path fill="#7C71E9" opacity="1.000000" stroke="none" 
	d="
M392.945740,474.930054 
	C393.439819,477.096344 393.872223,478.863037 394.304626,480.629761 
	C394.622589,480.696869 394.940552,480.764008 395.258545,480.831146 
	C396.916168,473.358673 398.573822,465.886169 400.231476,458.413696 
	C400.915924,458.576080 401.600372,458.738434 402.284821,458.900787 
	C400.094696,468.637054 397.904602,478.373291 395.714478,488.109528 
	C395.049530,488.117676 394.384583,488.125793 393.719635,488.133942 
	C392.238403,481.237701 390.757202,474.341492 389.275970,467.445251 
	C389.787323,467.304779 390.298676,467.164276 390.810028,467.023804 
	C391.501373,469.526031 392.192688,472.028259 392.945740,474.930054 
z"/>
<path fill="#756AE8" opacity="1.000000" stroke="none" 
	d="
M276.234985,461.934753 
	C275.854004,460.595337 275.628937,459.584534 275.403839,458.573730 
	C275.858490,458.374512 276.313141,458.175293 276.767792,457.976074 
	C278.707855,462.083893 280.647919,466.191681 282.951233,471.068634 
	C285.290588,466.216888 287.271637,462.108337 289.252686,457.999756 
	C289.904175,458.244232 290.555664,458.488678 291.207184,458.733154 
	C286.938110,468.034363 281.769440,477.124023 284.558777,488.084961 
	C283.648987,488.095673 282.739197,488.106384 281.829437,488.117096 
	C283.031860,478.696991 280.963318,470.147095 276.234985,461.934753 
z"/>
<path fill="#6659E5" opacity="1.000000" stroke="none" 
	d="
M257.769897,459.137756 
	C257.965271,468.954437 257.965271,478.419281 257.965271,487.884155 
	C257.436035,487.930237 256.906769,487.976318 256.377533,488.022369 
	C256.087219,487.079681 255.553284,486.139130 255.544907,485.193909 
	C255.475449,477.364716 255.430206,469.533142 255.593170,461.706787 
	C255.613708,460.719818 256.883545,459.758911 257.769897,459.137756 
z"/>
<path fill="#7166E7" opacity="1.000000" stroke="none" 
	d="
M484.433899,412.202820 
	C485.919708,413.181458 487.239746,414.103088 487.989868,415.363800 
	C488.227783,415.763550 487.057739,417.681824 486.333344,417.813629 
	C485.251862,418.010376 482.985901,417.238098 482.986603,416.881531 
	C482.989594,415.346008 483.635681,413.811768 484.433899,412.202820 
z"/>
<path fill="#F6F5FD" opacity="1.000000" stroke="none" 
	d="
M411.526978,465.819580 
	C411.472076,465.643646 411.368988,465.503052 411.118011,465.310974 
	C411.014160,464.894104 410.912048,464.526550 411.021790,464.240112 
	C411.748596,462.342682 412.520813,460.462677 413.278320,458.577026 
	C413.874268,460.257690 414.468781,461.938904 415.066956,463.618805 
	C415.342316,464.392151 415.624847,465.162964 415.959534,466.266510 
	C415.873199,466.698669 415.731537,466.799255 414.993835,466.821838 
	C413.440887,466.435791 412.483917,466.127686 411.526978,465.819580 
z"/>
<path fill="#FDFDFF" opacity="1.000000" stroke="none" 
	d="
M325.332947,263.200134 
	C320.444702,253.780960 325.510559,242.054794 335.500366,241.058716 
	C339.606110,240.649323 344.349335,244.051147 348.336517,246.483353 
	C349.670349,247.296982 349.991760,250.474823 350.030853,252.585739 
	C350.209229,262.228241 346.577576,266.740936 337.151184,268.822906 
	C336.174774,269.038605 334.897949,268.551270 333.936188,268.051819 
	C331.137543,266.598419 328.428162,264.973114 325.332947,263.200134 
z"/>
<path fill="#F6F5FD" opacity="1.000000" stroke="none" 
	d="
M459.179443,409.601929 
	C459.165436,400.169434 459.314514,391.192078 459.099152,382.223480 
	C458.997620,377.995026 460.536163,376.782898 464.703430,378.203430 
	C464.703430,389.196136 464.703430,400.258698 464.703430,412.828369 
	C462.499725,411.721497 460.846436,410.891052 459.179443,409.601929 
z"/>
<path fill="#F6F5FD" opacity="1.000000" stroke="none" 
	d="
M200.309265,378.081970 
	C202.022385,377.976715 203.309998,378.035645 204.825684,378.104980 
	C204.825684,382.652863 204.825684,386.925049 204.825684,391.601868 
	C203.115433,391.601868 201.437836,391.601868 198.953613,391.601868 
	C199.273544,387.008057 199.578659,382.627106 200.309265,378.081970 
z"/>
<path fill="#F3F2FD" opacity="1.000000" stroke="none" 
	d="
M264.705627,382.269226 
	C264.707367,391.019287 264.548889,399.306549 264.777527,407.583099 
	C264.892975,411.762360 263.380188,413.025421 259.186157,411.675018 
	C259.186157,400.743774 259.186157,389.717346 259.186157,378.367981 
	C262.242737,377.523346 265.063721,376.829956 264.705627,382.269226 
z"/>
<path fill="#F3F2FD" opacity="1.000000" stroke="none" 
	d="
M325.904053,399.527313 
	C324.687103,400.133667 323.569824,400.358185 321.915924,400.690521 
	C322.495453,397.044250 322.946472,394.206360 323.397522,391.368500 
	C323.772278,391.305298 324.147034,391.242096 324.521759,391.178925 
	C325.015747,393.834442 325.509735,396.489960 325.904053,399.527313 
z"/>
<path fill="#F6F5FD" opacity="1.000000" stroke="none" 
	d="
M141.042725,380.301819 
	C142.624115,379.005096 144.195023,378.169739 146.892502,376.735291 
	C146.892502,380.540588 146.892502,382.807770 146.892502,385.074951 
	C146.892502,387.190735 146.892502,389.306488 146.892502,391.703918 
	C144.782120,391.703918 143.214279,391.703918 141.032242,391.703918 
	C141.032242,387.967529 141.032242,384.365356 141.042725,380.301819 
z"/>
<path fill="#F6F5FD" opacity="1.000000" stroke="none" 
	d="
M345.002747,460.941162 
	C348.898010,460.821075 352.538055,460.290497 354.150787,464.598114 
	C356.374908,470.538635 352.142731,474.390747 343.402985,473.255951 
	C343.780914,469.243317 344.166199,465.152527 345.002747,460.941162 
z"/>
<path fill="#FBFBFE" opacity="1.000000" stroke="none" 
	d="
M302.263306,460.346832 
	C307.297729,460.381378 309.008179,463.021759 308.914886,467.382782 
	C308.822571,471.697113 308.986725,476.018219 308.842529,480.329803 
	C308.717224,484.076569 306.730896,486.149292 302.830719,486.063232 
	C299.157745,485.982239 297.995209,483.592560 297.933197,480.448090 
	C297.838287,475.635803 297.524231,470.775238 298.085419,466.027649 
	C298.320587,464.037994 300.556641,462.284821 302.263306,460.346832 
z"/>
<path fill="#FEFEFF" opacity="1.000000" stroke="none" 
	d="
M411.305023,466.051147 
	C412.483917,466.127686 413.440887,466.435791 414.742615,466.891235 
	C415.697296,469.946411 416.319336,472.851868 416.897186,475.766083 
	C416.951630,476.040649 416.727905,476.370361 416.547424,476.950745 
	C414.546356,476.950745 412.465302,476.950745 410.041290,476.950745 
	C410.401459,473.262634 410.742249,469.772675 411.305023,466.051147 
z"/>
</svg>